<svg width="389" height="99" viewBox="0 0 389 99" fill="none" xmlns="http://www.w3.org/2000/svg">
<path d="M123.222 98.913C117.414 98.208 112.818 96.9674 108.983 95.0781C101.341 91.2715 96.4349 84.7015 94.9122 76.2423C93.3613 67.6421 94.6302 59.4649 98.4087 53.2051C102.328 46.7761 109.434 42.2645 118.316 40.5445C125.788 39.1346 135.516 39.6139 141.804 41.7287C151.363 44.9432 156.975 51.5414 158.892 61.8335C159.118 63.1305 159.315 64.7096 159.343 65.3581C159.343 66.1477 159.541 65.5555 159.879 63.5253C162.388 49.2856 172.117 41.3622 188.95 39.8677C192.842 39.5012 198.34 39.8113 202.485 40.6009C209.083 41.8415 214.723 44.7741 217.994 48.6371C221.18 52.4155 222.844 55.9402 223.887 61.1567L224.394 63.6945L224.423 61.2977C224.451 59.9724 224.451 49.3984 224.451 37.7529C224.451 25.8254 224.564 15.5616 224.733 14.2363C225.071 11.2756 225.861 9.92215 227.778 9.04803C229.075 8.42769 229.414 8.42769 244.048 8.3431C259.923 8.25851 260.346 8.2867 262.292 9.61198C264.435 11.05 264.322 10.0913 264.491 33.7489L264.632 54.8123L271.117 48.2987C274.698 44.7459 277.941 41.616 278.364 41.3904C279.774 40.6573 280.31 40.8828 282.453 43.1386C283.919 44.6613 284.511 45.479 284.511 45.9866C284.511 46.8325 283.27 48.1014 280.141 50.4135C277.518 52.3592 271.117 57.1245 268.354 59.1547C267.113 60.057 266.183 60.8184 266.239 60.8747C266.267 60.9029 267.198 61.0439 268.27 61.1567C276.278 61.9463 280.366 65.2735 281.55 71.9281C282.086 74.8042 282.143 95.1345 281.663 96.065C281.156 97.0237 280.902 97.1083 277.828 97.1083C273.486 97.1083 273.881 98.3208 273.74 84.5041C273.599 71.7871 273.486 70.9976 271.794 69.2776C270.751 68.1779 268.636 67.3601 266.267 67.0782L264.519 66.8808L264.435 79.6824C264.35 92.0046 264.322 92.5122 263.758 93.7528C263.081 95.1627 262.122 95.9804 260.402 96.5726C258.711 97.1365 230.513 97.1365 228.568 96.5726C226.932 96.0932 225.466 94.7398 224.987 93.2453C224.705 92.3712 224.451 83.0379 224.451 73.8737C224.451 73.479 224.366 73.4226 224.056 73.6764C223.802 73.9019 220.278 74.0147 212.1 74.0711C205.728 74.0993 200.427 74.2121 200.314 74.3249C200.088 74.5505 200.68 78.5827 201.047 79.485C202.4 82.6995 203.275 84.1658 204.713 85.6038C206.489 87.3521 208.209 88.0852 210.69 88.0852C212.1 88.0852 214.892 87.1547 216.556 86.1396C218.05 85.2373 218.388 85.3782 219.657 87.3239C221.124 89.6078 221.18 90.7639 219.883 91.3561C218.586 91.9482 217.768 92.4276 217.204 92.9351C216.02 93.9502 210.268 96.4034 208.237 96.7418C207.786 96.7982 207.025 97.0519 206.545 97.2493C205.502 97.7287 200.004 98.7438 198.086 98.8284C197.325 98.8848 194.646 98.8848 192.165 98.8848C177.559 98.8848 166.731 93.0761 162.078 82.8123C161.176 80.8103 160.076 76.8345 159.738 74.3813L159.541 72.915L158.892 73.5918L158.215 74.2685H146.626H135.065V75.0016C135.065 76.5243 135.996 79.8516 137.039 82.0228C138.28 84.5887 139.859 86.337 141.776 87.2957C144.399 88.5927 148.685 88.0288 151.504 86.055C152.66 85.2373 153.365 85.5756 154.662 87.5494C156.298 90.1154 156.129 90.5666 152.971 92.4276C147.839 95.4729 143.835 96.8828 136.193 98.3772C133.881 98.8284 125.422 99.1668 123.222 98.913ZM258.964 91.9482L259.782 91.2715L259.81 52.7539L259.838 14.2363L259.218 13.616C258.823 13.193 258.147 12.9675 257.188 12.8547L255.75 12.7137L255.693 52.5565C255.637 74.4377 255.665 92.4276 255.722 92.484C256.116 92.8787 258.231 92.5122 258.964 91.9482ZM140.93 90.8767C140.874 90.6794 140.479 90.5102 140.028 90.4538C138.336 90.2846 135.742 88.198 134.022 85.6602C132.133 82.9251 130.836 79.203 130.3 75.0862C129.961 72.5203 130.102 65.1607 130.554 62.8486C131.851 55.9684 135.037 51.2313 139.549 49.5958C140.423 49.2574 140.479 49.201 139.859 49.201C137.49 49.1446 133.571 50.9211 131.315 53.0923C128.213 56.0812 126.352 60.4518 125.76 66.1477C124.491 78.4699 129.539 88.339 138.336 90.7639C140.084 91.2433 141.071 91.2715 140.93 90.8767ZM206.123 90.9049C206.123 90.7639 205.925 90.623 205.643 90.623C204.656 90.623 202.034 88.9875 200.652 87.4931C197.663 84.2786 195.887 79.5132 195.351 73.2252C194.787 66.7962 195.689 60.621 197.861 56.2222C199.073 53.7408 202.006 50.6109 203.669 50.0188C204.966 49.5394 205.051 49.0601 203.81 49.3138C197.325 50.6955 192.898 55.5173 191.404 62.8486C190.586 66.9654 190.67 73.7327 191.601 77.4266C192.672 81.5998 195.351 85.9986 198.03 88.0288C199.947 89.4669 200.878 89.9462 203.218 90.5948C205.418 91.2151 206.123 91.2997 206.123 90.9049ZM224.592 63.8919C224.31 63.6099 224.31 63.9765 224.451 67.9241L224.592 71.8717L224.676 67.9523C224.705 65.8093 224.676 63.9765 224.592 63.8919ZM151.702 65.6119C151.702 63.3561 150.856 59.0701 150.066 57.2937C149.333 55.6018 147.98 54.1074 146.485 53.4025C144.229 52.3028 140.536 52.7539 138.731 54.3048C138.167 54.7841 136.644 57.2655 136.25 58.337C135.573 60.1416 135.037 62.8768 134.868 65.1325L134.699 67.5011H143.214H151.702V65.6119ZM216.838 65.6965C216.838 61.4669 215.569 57.0681 213.708 54.9815C211.198 52.1054 205.784 52.0772 203.444 54.8687C201.808 56.8143 200.229 61.2131 200.06 64.2302C200.032 64.8788 199.976 65.5273 199.919 65.6683C199.891 65.8375 199.863 66.2886 199.891 66.7398L199.919 67.5011H208.378H216.838V65.6965Z" fill="#F4BE4B"/>
<path d="M351.621 98.2081C345.107 97.4467 339.214 94.9654 334.533 90.9895C329.542 86.7317 325.849 80.2464 324.974 74.2121C324.551 71.2796 324.382 73.5072 324.354 82.3612C324.326 92.9352 324.157 94.1477 322.437 95.6703C320.801 97.0802 319.899 97.1648 303.826 97.052C287.726 96.9674 287.979 96.9956 286.118 95.191C284.511 93.6401 284.511 93.6965 284.511 69.5878C284.511 54.5304 284.624 47.0581 284.821 46.043C285.047 44.9997 285.414 44.3229 286.175 43.5616C288.008 41.7288 288.205 41.7006 304.813 41.7006C320.914 41.7006 320.914 41.7006 322.719 43.2796C324.213 44.6049 324.382 45.8456 324.354 55.4609C324.354 60.0852 324.382 63.8073 324.439 63.7791C324.551 63.6663 324.805 62.341 325.003 61.0158C325.736 55.6865 329.204 49.2293 333.462 45.1971C337.522 41.3904 342.429 38.9372 348.801 37.5556C352.41 36.766 360.221 36.7097 363.605 37.4428C377.478 40.4599 385.824 49.2293 387.855 62.8486C388.447 66.8808 388.418 67.7831 387.714 67.7831C387.403 67.7831 387.15 67.9523 387.15 68.1497C387.15 68.3753 387.037 68.3471 386.868 68.0651C386.698 67.8113 386.501 67.7549 386.388 67.9241C386.247 68.0933 381.031 68.2061 371.782 68.2061C363.887 68.2061 357.176 68.2907 356.894 68.4035C356.443 68.6009 356.414 69.4186 356.471 82.1638C356.527 89.6079 356.471 95.6985 356.386 95.6985C356.273 95.6985 356.104 96.1215 356.02 96.6572C355.851 97.6159 354.835 98.5464 354.102 98.4901C353.905 98.4619 352.777 98.3491 351.621 98.2081ZM318.602 92.1738C319.053 91.9483 319.476 91.5535 319.589 91.3279C319.673 91.0741 319.758 81.1769 319.758 69.334V47.7912L319.138 47.0863C318.658 46.5505 318.094 46.325 317.023 46.184L315.528 45.9866V69.3058V92.5968H316.656C317.305 92.5968 318.179 92.3994 318.602 92.1738Z" fill="#F4BE4B"/>
<path d="M22.1349 96.7982C21.1762 96.2906 19.569 94.345 18.9486 92.9351C18.6103 92.202 17.0312 88.2543 15.3957 84.1375C13.7885 80.0207 10.6022 71.9845 8.31822 66.2322C0.592144 46.776 0 45.2252 0 44.0691C0 42.7156 0.789524 41.9261 2.36858 41.7005C3.01711 41.6159 8.79757 41.5595 15.2266 41.6159C25.857 41.7005 27.0131 41.7569 27.859 42.2081C28.9587 42.8002 29.6354 43.8435 30.6223 46.4941C33.5548 54.2483 37.3051 64.061 37.5307 64.5404C37.6435 64.8505 38.01 65.7529 38.3202 66.5142C38.9687 68.1778 38.715 68.5726 40.7452 62.4256L42.0986 58.337L41.3655 56.5041C40.6324 54.6431 38.433 48.6371 37.4461 45.8173C36.8257 44.1255 36.9667 42.9976 37.8408 42.2363C38.3766 41.7287 39.1379 41.7005 51.291 41.7005C63.0493 41.7005 64.2336 41.7287 65.0513 42.2081C65.5588 42.4619 66.1792 42.9976 66.4329 43.3924C66.6867 43.7589 68.6324 49.2856 70.7472 55.6582C74.3564 66.4296 74.864 67.7831 75.0895 67.4729C75.1459 67.4165 76.8378 62.2282 78.8962 55.9402C80.9546 49.6522 82.8438 44.0691 83.1258 43.5334C83.9153 41.9261 85.015 41.5595 89.1036 41.5595C93.8126 41.5595 93.8972 41.5877 93.8972 43.1668C93.8972 44.1255 93.2768 45.9301 91.3312 50.5263C89.9213 53.8818 88.2295 57.9704 87.5528 59.6058C86.9042 61.2413 84.7612 66.4296 82.7874 71.1668C72.6646 95.4165 73.0593 94.6269 70.7189 96.206C69.6756 96.8827 69.5065 96.9109 64.2336 96.9391C60.3705 96.9673 58.5659 96.8827 58.0583 96.629C56.8177 96.065 55.4078 94.1476 54.5901 91.9764C54.1671 90.8485 53.434 88.9593 53.011 87.8032C52.5599 86.6471 51.0372 82.5867 49.6273 78.78C48.2175 74.9734 46.9768 71.7871 46.8358 71.6461C46.6384 71.4487 46.3 72.1819 45.2003 74.9734C44.9466 75.5937 44.4954 76.6652 44.1852 77.3702C43.5931 78.7518 40.0402 87.3802 39.1379 89.636C38.0664 92.3994 36.6283 95.0499 35.8388 95.8112C35.3877 96.2342 34.5418 96.7135 33.9496 96.8545C32.3988 97.1929 22.8399 97.1647 22.1349 96.7982ZM71.7904 77.5676C72.5518 75.199 72.5518 75.0862 72.1288 73.6481C71.3111 70.8848 63.5004 47.8475 63.1903 47.2836C62.8237 46.5787 61.4984 46.0711 59.9758 46.0711C59.0452 46.0711 58.9043 46.1557 59.0734 46.5787C59.158 46.8324 61.724 54.4175 64.7411 63.4125C67.7582 72.4074 70.2678 79.9361 70.3524 80.1617C70.6062 80.8385 71.0009 80.1617 71.7904 77.5676ZM35.5005 77.5112C36.008 76.0167 36.3746 74.5222 36.29 74.1839C36.2054 73.8455 35.3595 71.5333 34.4008 69.052C33.4421 66.5706 31.6656 61.9462 30.4531 58.7599C25.7724 46.4377 25.9698 46.917 24.9265 46.4659C23.996 46.0711 21.43 45.9019 21.43 46.2403C21.43 46.3249 22.3887 48.9754 23.573 52.0771C24.7573 55.2071 26.0262 58.5343 26.3645 59.4649C26.7311 60.3954 28.0846 63.9482 29.4098 67.3601C30.7069 70.772 32.3424 75.058 33.0191 76.8626C33.6958 78.6954 34.3162 80.1899 34.4008 80.1899C34.4854 80.1899 34.9647 78.9774 35.5005 77.5112Z" fill="#F4BE4B"/>
<path d="M302.134 36.2021C295.564 35.3562 289.333 30.0832 287.331 23.5979C286.513 20.9191 286.316 17.3944 286.88 14.7721C288.346 7.75095 294.211 1.9423 301.204 0.532427C303.911 -0.00332218 305.039 -0.00332218 307.774 0.532427C311.947 1.32195 316.261 3.9725 318.771 7.29979C321.619 11.05 323.085 16.6613 322.324 20.8345C321.901 23.0903 321.139 25.4871 320.858 25.4871C320.717 25.4871 320.604 25.7127 320.604 25.9946C320.604 27.7147 316.064 32.621 313.301 33.8617C312.426 34.2565 311.045 34.905 310.199 35.2998C309.381 35.6663 307.802 36.0893 306.674 36.2303C304.418 36.484 304.475 36.4841 302.134 36.2021ZM310.058 30.7036C312.314 29.7731 315.331 26.7842 316.431 24.4156C317.587 21.8496 317.812 20.8345 317.812 18.4377C317.784 14.4901 316.459 11.2192 313.78 8.65326C312.567 7.49717 308.874 5.26958 308.592 5.55155C308.507 5.60795 309.071 6.48206 309.804 7.46897C311.524 9.75295 312.934 13.2776 313.329 16.3511C313.893 20.5525 312.596 25.2333 309.72 29.3783C308.422 31.2393 308.451 31.3803 310.058 30.7036Z" fill="#F4BE4B"/>
</svg>
