<svg width="16" height="17" viewBox="0 0 16 17" fill="none" xmlns="http://www.w3.org/2000/svg">
<g id="Login-Icons">
<path id="Vector" d="M8 2.79728C4.36364 2.79728 1.25818 5.0591 0 8.25182C1.25818 11.4446 4.36364 13.7064 8 13.7064C11.6364 13.7064 14.7418 11.4446 16 8.25182C14.7418 5.0591 11.6364 2.79728 8 2.79728ZM8 11.8882C5.99273 11.8882 4.36364 10.2591 4.36364 8.25182C4.36364 6.24455 5.99273 4.61546 8 4.61546C10.0073 4.61546 11.6364 6.24455 11.6364 8.25182C11.6364 10.2591 10.0073 11.8882 8 11.8882ZM8 6.07001C6.79273 6.07001 5.81818 7.04455 5.81818 8.25182C5.81818 9.4591 6.79273 10.4336 8 10.4336C9.20727 10.4336 10.1818 9.4591 10.1818 8.25182C10.1818 7.04455 9.20727 6.07001 8 6.07001Z" fill="#4D4D4D"/>
</g>
</svg>
