<svg width="80" height="80" viewBox="0 0 23 23" fill="none" xmlns="http://www.w3.org/2000/svg">
<g id="Vector" filter="url(#filter0_b_1_953)">
<path d="M11.513 0C13.0932 0 14.5823 0.299887 15.9802 0.89966C17.3781 1.49943 18.598 2.32086 19.6399 3.36395C20.6818 4.40703 21.5023 5.62831 22.1014 7.02778C22.7005 8.42725 23 9.91799 23 11.5C23 13.0994 22.7005 14.5945 22.1014 15.9853C21.5023 17.376 20.6818 18.593 19.6399 19.6361C18.598 20.6791 17.3781 21.5006 15.9802 22.1003C14.5823 22.7001 13.0932 23 11.513 23C9.91544 23 8.4177 22.7001 7.01982 22.1003C5.62193 21.5006 4.40204 20.6791 3.36014 19.6361C2.31823 18.593 1.49773 17.376 0.898641 15.9853C0.299547 14.5945 0 13.0994 0 11.5C0 9.91799 0.299547 8.42725 0.898641 7.02778C1.49773 5.62831 2.31823 4.40703 3.36014 3.36395C4.40204 2.32086 5.62193 1.49943 7.01982 0.89966C8.4177 0.299887 9.91544 0 11.513 0ZM18.077 13.0907C18.5285 13.0907 18.9105 12.9299 19.2231 12.6083C19.5357 12.2867 19.692 11.8998 19.692 11.4478C19.692 10.9958 19.5357 10.6134 19.2231 10.3005C18.9105 9.98753 18.5285 9.83107 18.077 9.83107H13.1801V4.92857C13.1801 4.47657 13.0194 4.08976 12.6982 3.76814C12.3769 3.44652 11.9906 3.28571 11.5391 3.28571C11.0876 3.28571 10.7055 3.44652 10.393 3.76814C10.0804 4.08976 9.92412 4.47657 9.92412 4.92857V9.83107H5.02718C4.57569 9.83107 4.19366 9.98753 3.88109 10.3005C3.56852 10.6134 3.41223 10.9958 3.41223 11.4478C3.41223 11.8998 3.56852 12.2867 3.88109 12.6083C4.19366 12.9299 4.57569 13.0907 5.02718 13.0907H9.92412V17.9671C9.92412 18.4191 10.0804 18.8059 10.393 19.1276C10.7055 19.4492 11.0876 19.61 11.5391 19.61C11.9906 19.61 12.3769 19.4492 12.6982 19.1276C13.0194 18.8059 13.1801 18.4191 13.1801 17.9671V13.0907H18.077Z" fill="white"/>
</g>
<defs>
<filter id="filter0_b_1_953" x="-4" y="-4" width="31" height="31" filterUnits="userSpaceOnUse" color-interpolation-filters="sRGB">
<feFlood flood-opacity="0" result="BackgroundImageFix"/>
<feGaussianBlur in="BackgroundImageFix" stdDeviation="2"/>
<feComposite in2="SourceAlpha" operator="in" result="effect1_backgroundBlur_1_953"/>
<feBlend mode="normal" in="SourceGraphic" in2="effect1_backgroundBlur_1_953" result="shape"/>
</filter>
</defs>
</svg>
