<svg width="28" height="31" viewBox="0 0 28 31" fill="none" xmlns="http://www.w3.org/2000/svg">
<g id="ICONE_CLIENTE" clip-path="url(#clip0_1_802)">
<path id="Vector" d="M4.56164 10.1626C4.56186 8.9582 4.84085 7.77434 5.37153 6.72588C5.9022 5.67742 6.66654 4.79996 7.59038 4.17867C8.51421 3.55737 9.56616 3.21333 10.6441 3.17993C11.7221 3.14654 12.7895 3.42492 13.7428 3.98806C14.6961 4.5512 15.5028 5.37999 16.0847 6.39398C16.6666 7.40797 17.0039 8.57274 17.0639 9.77525C17.1239 10.9778 16.9046 12.1772 16.4272 13.2571C15.9498 14.337 15.2305 15.2608 14.3392 15.9387C16.2586 16.725 17.9235 18.1348 19.1195 19.9866C20.3155 21.8385 20.9879 24.0477 21.0501 26.33C21.0475 26.5761 20.9598 26.8115 20.8054 26.987C20.651 27.1626 20.4418 27.2647 20.2216 27.2721C20.0014 27.2795 19.7871 27.1916 19.6235 27.0266C19.46 26.8617 19.3598 26.6326 19.344 26.3872C19.2762 23.9119 18.3482 21.5633 16.7565 19.8392C15.1647 18.115 13.0345 17.1508 10.8171 17.1508C8.59965 17.1508 6.46937 18.115 4.87766 19.8392C3.28594 21.5633 2.35788 23.9119 2.29015 26.3872C2.27876 26.6359 2.18059 26.8698 2.01666 27.0388C1.85273 27.2077 1.63609 27.2982 1.41314 27.2909C1.1902 27.2835 0.97868 27.179 0.823906 26.9997C0.669132 26.8203 0.583411 26.5804 0.585108 26.3313C0.647157 24.0488 1.31945 21.8393 2.51546 19.9872C3.71147 18.135 5.37644 16.7251 7.29607 15.9387C6.45303 15.298 5.76312 14.4367 5.28651 13.4299C4.80989 12.4231 4.56103 11.3014 4.56164 10.1626ZM10.8176 5.08128C9.61094 5.08128 8.45368 5.61663 7.60043 6.56956C6.74717 7.52248 6.26782 8.81493 6.26782 10.1626C6.26782 11.5102 6.74717 12.8027 7.60043 13.7556C8.45368 14.7085 9.61094 15.2439 10.8176 15.2439C12.0243 15.2439 13.1816 14.7085 14.0348 13.7556C14.8881 12.8027 15.3674 11.5102 15.3674 10.1626C15.3674 8.81493 14.8881 7.52248 14.0348 6.56956C13.1816 5.61663 12.0243 5.08128 10.8176 5.08128ZM20.2471 10.1626C20.0788 10.1626 19.915 10.1753 19.7534 10.2007C19.6407 10.2232 19.525 10.2202 19.4133 10.1917C19.3016 10.1633 19.1962 10.11 19.1034 10.035C19.0105 9.96007 18.9321 9.865 18.8729 9.75549C18.8137 9.64597 18.7748 9.52426 18.7586 9.3976C18.7424 9.27094 18.7492 9.14193 18.7786 9.01827C18.808 8.89462 18.8594 8.77884 18.9298 8.67786C19.0001 8.57687 19.0879 8.49274 19.188 8.43049C19.2881 8.36824 19.3984 8.32914 19.5123 8.31553C20.6436 8.13286 21.7971 8.37548 22.7914 9.00522C23.7857 9.63495 24.5643 10.616 25.0046 11.7941C25.4449 12.9721 25.522 14.2803 25.2237 15.5126C24.9254 16.7449 24.2687 17.8315 23.3569 18.6013C24.6973 19.2716 25.8353 20.3608 26.6338 21.7373C27.4322 23.1139 27.8569 24.7191 27.8567 26.3592C27.8567 26.6119 27.7668 26.8542 27.6068 27.0329C27.4468 27.2116 27.2298 27.312 27.0036 27.312C26.7773 27.312 26.5603 27.2116 26.4003 27.0329C26.2404 26.8542 26.1505 26.6119 26.1505 26.3592C26.1503 24.9417 25.7414 23.562 24.9842 22.4244C24.227 21.2868 23.1618 20.4518 21.9465 20.0432L21.3391 19.8399V17.7108L21.8054 17.4454C22.4967 17.0543 23.0498 16.4144 23.3754 15.6291C23.7011 14.8438 23.7802 13.9588 23.6001 13.117C23.42 12.2753 22.9911 11.5259 22.3828 10.9898C21.7744 10.4538 21.022 10.1623 20.2471 10.1626Z" fill="white"/>
</g>
<defs>
<clipPath id="clip0_1_802">
<rect width="27.2988" height="30.4878" fill="white" transform="translate(0.580566)"/>
</clipPath>
</defs>
</svg>
