<svg width="22" height="25" viewBox="0 0 22 25" fill="none" xmlns="http://www.w3.org/2000/svg">
<g id="ICONE_VIS&#195;&#131;O_GERAL">
<path id="Vector" d="M7.41089 16.6666V11.4583M10.8232 16.6666V8.33329M14.2356 16.6666V14.5833M15.9418 4.16663H5.70471C5.25221 4.16663 4.81823 4.38612 4.49826 4.77682C4.17829 5.16752 3.99854 5.69742 3.99854 6.24996V18.75C3.99854 19.3025 4.17829 19.8324 4.49826 20.2231C4.81823 20.6138 5.25221 20.8333 5.70471 20.8333H15.9418C16.3943 20.8333 16.8283 20.6138 17.1482 20.2231C17.4682 19.8324 17.648 19.3025 17.648 18.75V6.24996C17.648 5.69742 17.4682 5.16752 17.1482 4.77682C16.8283 4.38612 16.3943 4.16663 15.9418 4.16663Z" stroke="white" stroke-width="2.08333" stroke-linecap="round" stroke-linejoin="round"/>
</g>
</svg>
