<svg width="18" height="14" viewBox="0 0 18 14" fill="none" xmlns="http://www.w3.org/2000/svg">
<g id="Group 1000004104">
<path id="Shape" fill-rule="evenodd" clip-rule="evenodd" d="M14.7797 1.55556L2.33529 1.55556C1.90573 1.55556 1.55751 1.90378 1.55751 2.33333L1.55751 11.6667C1.55751 12.0962 1.90573 12.4444 2.33529 12.4444L14.7797 12.4444C15.2093 12.4444 15.5575 12.0962 15.5575 11.6667V2.33333C15.5575 1.90378 15.2093 1.55556 14.7797 1.55556ZM2.33529 0C1.04662 0 0.00195313 1.04467 0.00195313 2.33333L0.00195313 11.6667C0.00195313 12.9553 1.04662 14 2.33529 14L14.7797 14C16.0684 14 17.1131 12.9553 17.1131 11.6667V2.33333C17.1131 1.04467 16.0684 0 14.7797 0L2.33529 0Z" fill="#232360"/>
<path id="Shape_2" fill-rule="evenodd" clip-rule="evenodd" d="M3.29075 3.39072C3.56574 3.06072 4.05618 3.01614 4.38618 3.29113L8.057 6.35015C8.34544 6.59052 8.76441 6.59052 9.05284 6.35015L12.7237 3.29113C13.0537 3.01614 13.5441 3.06072 13.8191 3.39072C14.0941 3.72071 14.0495 4.21115 13.7195 4.48614L10.0487 7.54516C9.18338 8.26625 7.92647 8.26625 7.06116 7.54516L3.39033 4.48614C3.06034 4.21115 3.01576 3.72071 3.29075 3.39072Z" fill="#232360"/>
</g>
</svg>
